<svg width="1024" height="1024" viewBox="0 0 1024 1024" fill="none" xmlns="http://www.w3.org/2000/svg">
  <defs>
    <linearGradient id="bgMain" x1="120" y1="80" x2="900" y2="940" gradientUnits="userSpaceOnUse">
      <stop offset="0" stop-color="#FF1200"/>
      <stop offset="1" stop-color="#C40000"/>
    </linearGradient>
    <linearGradient id="docGrad" x1="250" y1="180" x2="760" y2="860" gradientUnits="userSpaceOnUse">
      <stop offset="0" stop-color="#FFFDFD"/>
      <stop offset="1" stop-color="#FFF4F4"/>
    </linearGradient>
    <linearGradient id="foldGrad" x1="620" y1="150" x2="875" y2="410" gradientUnits="userSpaceOnUse">
      <stop offset="0" stop-color="#FFEFEF"/>
      <stop offset="1" stop-color="#FFFFFF"/>
    </linearGradient>
    <filter id="shadow" x="120" y="120" width="800" height="800" filterUnits="userSpaceOnUse">
      <feOffset dx="0" dy="28"/>
      <feGaussianBlur stdDeviation="24"/>
      <feColorMatrix type="matrix" values="0 0 0 0 0.45 0 0 0 0 0 0 0 0 0 0 0 0 0 0.35 0"/>
      <feBlend in2="SourceGraphic" result="shape"/>
    </filter>
    <filter id="softShadow" x="110" y="230" width="560" height="280" filterUnits="userSpaceOnUse">
      <feOffset dx="0" dy="14"/>
      <feGaussianBlur stdDeviation="16"/>
      <feColorMatrix type="matrix" values="0 0 0 0 0.45 0 0 0 0 0 0 0 0 0 0 0 0 0 0.35 0"/>
      <feBlend in2="SourceGraphic" result="shape"/>
    </filter>
    <filter id="circleShadow" x="560" y="560" width="320" height="320" filterUnits="userSpaceOnUse">
      <feOffset dx="0" dy="14"/>
      <feGaussianBlur stdDeviation="18"/>
      <feColorMatrix type="matrix" values="0 0 0 0 0.45 0 0 0 0 0 0 0 0 0 0 0 0 0 0.28 0"/>
      <feBlend in2="SourceGraphic" result="shape"/>
    </filter>
  </defs>

  <rect x="20" y="20" width="984" height="984" rx="190" fill="url(#bgMain)"/>
  <ellipse cx="875" cy="320" rx="260" ry="220" fill="#E00000" fill-opacity="0.55"/>
  <ellipse cx="180" cy="855" rx="340" ry="180" fill="#FF220D" fill-opacity="0.55"/>
  <rect x="28" y="904" width="968" height="92" rx="46" fill="#840000" fill-opacity="0.22"/>

  <g filter="url(#shadow)">
    <path d="M280 150H625L820 345V790C820 834.183 784.183 870 740 870H280C235.817 870 200 834.183 200 790V230C200 185.817 235.817 150 280 150Z" fill="url(#docGrad)"/>
    <path d="M625 150L820 345H690C654.654 345 626 316.346 626 281V150H625Z" fill="url(#foldGrad)"/>
    <path d="M626 150V281C626 316.346 654.654 345 690 345H820" stroke="#F6B4B4" stroke-opacity="0.55" stroke-width="10"/>
  </g>

  <g filter="url(#softShadow)">
    <path d="M210 360H620L680 420V530C680 552.091 662.091 570 640 570H210C187.909 570 170 552.091 170 530V400C170 377.909 187.909 360 210 360Z" fill="#F90900"/>
    <path d="M170 400C170 377.909 187.909 360 210 360H230V570H210C187.909 570 170 552.091 170 530V400Z" fill="#C30000"/>
    <text x="393" y="512" text-anchor="middle" font-size="165" font-family="Arial, Helvetica, sans-serif" font-weight="700" fill="#FFFFFF">PDF</text>
  </g>

  <rect x="280" y="585" width="360" height="24" rx="12" fill="#DEC3C3"/>
  <rect x="280" y="650" width="270" height="22" rx="11" fill="#D7BBBB"/>
  <rect x="280" y="715" width="270" height="22" rx="11" fill="#D7BBBB"/>
  <rect x="280" y="780" width="140" height="22" rx="11" fill="#EF1B0A"/>

  <g filter="url(#circleShadow)">
    <circle cx="760" cy="760" r="140" fill="#FFF6F6"/>
    <circle cx="760" cy="760" r="118" fill="#FF150D"/>
    <path d="M704 809L713 730L786 657C797 646 814 646 825 657L840 672C851 683 851 700 840 711L767 784L704 809Z" fill="#FFFFFF"/>
    <path d="M770 672L826 728" stroke="#FF150D" stroke-width="16" stroke-linecap="round"/>
  </g>
</svg>
